<svg xmlns="http://www.w3.org/2000/svg" viewBox="0 0 64 64" role="img" aria-label="Potluck plate icon">
    <defs>
        <linearGradient id="bg" x1="8" y1="6" x2="56" y2="58" gradientUnits="userSpaceOnUse">
            <stop offset="0" stop-color="#fff8ef"/>
            <stop offset="0.58" stop-color="#f5dfc5"/>
            <stop offset="1" stop-color="#2e7d6f"/>
        </linearGradient>
        <linearGradient id="plate" x1="18" y1="16" x2="46" y2="49" gradientUnits="userSpaceOnUse">
            <stop offset="0" stop-color="#ffffff"/>
            <stop offset="1" stop-color="#fff3df"/>
        </linearGradient>
    </defs>
    <rect width="64" height="64" rx="14" fill="url(#bg)"/>
    <circle cx="32" cy="34" r="18" fill="url(#plate)" stroke="#8b4513" stroke-width="3"/>
    <circle cx="32" cy="34" r="10" fill="none" stroke="#eadfce" stroke-width="3"/>
    <path d="M17 14v18" stroke="#6f360f" stroke-width="3" stroke-linecap="round"/>
    <path d="M13 14v9m4-9v9m4-9v9" stroke="#6f360f" stroke-width="2.4" stroke-linecap="round"/>
    <path d="M48 14c3.8 4.2 3.4 12.1-1.1 16.4V50" fill="none" stroke="#6f360f" stroke-width="3" stroke-linecap="round" stroke-linejoin="round"/>
    <path d="M25 30c1.5-4.2 6.6-5.6 9.4-2.2 3.6-1.2 7.6 1.6 7.6 5.7 0 4.2-3.6 7.5-9.8 10.8C26 40.9 22.5 37.7 22.5 33.5c0-1.4.9-2.8 2.5-3.5Z" fill="#2e7d6f" opacity="0.92"/>
    <circle cx="38" cy="28" r="3" fill="#a93535"/>
</svg>
