<svg xmlns="http://www.w3.org/2000/svg" viewBox="0 0 64 64" role="img" aria-label="Independence Day potluck plate icon">
    <defs>
        <linearGradient id="bg" x1="8" y1="6" x2="56" y2="58" gradientUnits="userSpaceOnUse">
            <stop offset="0" stop-color="#1d3461"/>
            <stop offset="0.58" stop-color="#16306b"/>
            <stop offset="1" stop-color="#c8102e"/>
        </linearGradient>
        <linearGradient id="plate" x1="18" y1="16" x2="46" y2="49" gradientUnits="userSpaceOnUse">
            <stop offset="0" stop-color="#ffffff"/>
            <stop offset="1" stop-color="#eef2ff"/>
        </linearGradient>
    </defs>
    <rect width="64" height="64" rx="14" fill="url(#bg)"/>
    <circle cx="32" cy="34" r="18" fill="url(#plate)" stroke="#c8102e" stroke-width="3"/>
    <circle cx="32" cy="34" r="10" fill="none" stroke="#dce6f7" stroke-width="3"/>
    <path d="M17 14v18" stroke="#1d3461" stroke-width="3" stroke-linecap="round"/>
    <path d="M13 14v9m4-9v9m4-9v9" stroke="#1d3461" stroke-width="2.4" stroke-linecap="round"/>
    <path d="M48 14c3.8 4.2 3.4 12.1-1.1 16.4V50" fill="none" stroke="#1d3461" stroke-width="3" stroke-linecap="round" stroke-linejoin="round"/>
    <path d="M25 30c1.5-4.2 6.6-5.6 9.4-2.2 3.6-1.2 7.6 1.6 7.6 5.7 0 4.2-3.6 7.5-9.8 10.8C26 40.9 22.5 37.7 22.5 33.5c0-1.4.9-2.8 2.5-3.5Z" fill="#c8102e" opacity="0.95"/>
    <path d="M30 24l1.3 2.7 3 .4-2.2 2.1.5 3-2.6-1.4-2.6 1.4.5-3-2.2-2.1 3-.4z" fill="#ffffff"/>
</svg>
